<svg xmlns="http://www.w3.org/2000/svg" width="1500.5" height="346.357" viewBox="0 0 1500.5 346.357">
  <g id="footer-img" transform="translate(0.431 0.126)">
    <path id="Path" d="M.319,1.325h1499" transform="translate(0 344.156)" fill="none" stroke="#09343b" stroke-linecap="round" stroke-miterlimit="10" stroke-width="1.5"/>
    <path id="Path-2" data-name="Path" d="M0,.15H418.083" transform="translate(170.324 264.315)" fill="none" stroke="#09343b" stroke-linecap="round" stroke-miterlimit="10" stroke-width="1.5"/>
    <path id="Path-3" data-name="Path" d="M0,.15H213" transform="translate(1111.226 345.156)" fill="none" stroke="#59221d" stroke-linecap="round" stroke-miterlimit="10" stroke-width="1.5"/>
    <g id="TRAILER" transform="translate(439.319 0.981)">
      <rect id="Rectangle" width="453.324" height="7.812" transform="translate(0.207 192.324)" fill="#09343b" stroke="#09343b" stroke-linecap="round" stroke-miterlimit="10" stroke-width="1.5"/>
      <rect id="Rectangle-2" data-name="Rectangle" width="44.874" height="192.321" transform="translate(0.207 0.003)" fill="#09343b" stroke="#09343b" stroke-linecap="round" stroke-miterlimit="10" stroke-width="1.5"/>
      <rect id="Rectangle-3" data-name="Rectangle" width="408.45" height="192.321" transform="translate(45.081 0.003)" fill="#fff" stroke="#09343b" stroke-linecap="round" stroke-miterlimit="10" stroke-width="1.5"/>
      <rect id="Rectangle-4" data-name="Rectangle" width="406.056" height="7.896" transform="translate(46.683 19.845)" fill="rgba(9,52,59,0.1)"/>
      <rect id="Rectangle-5" data-name="Rectangle" width="406.056" height="7.896" transform="translate(46.683 158.628)" fill="rgba(9,52,59,0.1)"/>
    </g>
    <path id="Path-4" data-name="Path" d="M4.563,0H19.374V16.836H0V4.563A4.563,4.563,0,0,1,4.563,0Z" transform="translate(144.773 216.297)" fill="#fff" stroke="#081b1e" stroke-linecap="round" stroke-miterlimit="10" stroke-width="1.5"/>
    <path id="Path-5" data-name="Path" d="M46.9,67.305c-15.18,0-27.486-15.066-27.486-33.654S31.713,0,46.9,0H27.486C12.306,0,0,15.066,0,33.651S12.3,67.305,27.486,67.305Z" transform="translate(181.76 197.16)" fill="#09343b"/>
    <ellipse id="Oval" cx="27.486" cy="33.654" rx="27.486" ry="33.654" transform="translate(201.173 197.157)" fill="#212121" stroke="#081b1e" stroke-linecap="round" stroke-miterlimit="10" stroke-width="1.5"/>
    <path id="Path-6" data-name="Path" d="M65.1,57.648l4.074-5.025h57.81l10.89-12.642c19.923-22,46.215-35.337,74.7-39.981H215.3V193.965h70.452v42.72H157.812V222.516c0-19.977-15.843-36.165-35.382-36.165s-35.385,16.2-35.385,36.165v13.518H0V180.2A32.569,32.569,0,0,1,19.938,150l79.338-35.349a4.641,4.641,0,0,0,3.618-2.682l19.6-43.1a8.055,8.055,0,0,0-7.332-11.4Z" transform="translate(224.243)" fill="#1eb7b3"/>
    <path id="Path-7" data-name="Path" d="M143.385,0C114.915,4.647,88.623,17.982,68.7,39.981L57.81,52.614H0l6.816-7.9C32.067,16.827,67.551.009,104.73.009Z" transform="translate(294.032 0.624)" fill="#fff" stroke="#09343b" stroke-miterlimit="10" stroke-width="1.5"/>
    <path id="Path-8" data-name="Path" d="M163.671,0,80.985,35.877A34.028,34.028,0,0,0,60.15,67.437v54.852H0V64.338A34.17,34.17,0,0,1,16.926,34.7L81.555,0Z" transform="translate(164.093 113.754)" fill="#fff" stroke="#09343b" stroke-miterlimit="10" stroke-width="1.5"/>
    <path id="Path-9" data-name="Path" d="M0,0H26.721a4.563,4.563,0,0,1,4.563,4.563V16.836H0V0Z" transform="translate(224.243 216.297)" fill="#fff" stroke="#59221d" stroke-linecap="round" stroke-miterlimit="10" stroke-width="1.5"/>
    <path id="Path-10" data-name="Path" d="M0,0H20.37a4.563,4.563,0,0,1,4.563,4.563V16.836H0V0Z" transform="translate(223.919 216.297)" fill="#fff" stroke="#59221d" stroke-linecap="round" stroke-miterlimit="10" stroke-width="1.5"/>
    <rect id="Rectangle-6" data-name="Rectangle" width="44.874" height="21.543" rx="4.356" transform="translate(447.221 199.005)" fill="none" stroke="#fff" stroke-linecap="round" stroke-miterlimit="10" stroke-width="1.5"/>
    <path id="Path-11" data-name="Path" d="M0,.15H244.239" transform="translate(255.527 225.693)" fill="none" stroke="#09343b" stroke-linecap="round" stroke-miterlimit="10" stroke-width="1.5"/>
    <path id="Path-12" data-name="Path" d="M46.9,67.305c-15.18,0-27.486-15.066-27.486-33.654S31.713,0,46.9,0H27.486C12.306,0,0,15.066,0,33.651S12.3,67.305,27.486,67.305Z" transform="translate(780.59 197.16)" fill="#09343b"/>
    <ellipse id="Oval-2" data-name="Oval" cx="27.486" cy="33.654" rx="27.486" ry="33.654" transform="translate(800.003 197.157)" fill="#fff" stroke="#09343b" stroke-linecap="round" stroke-miterlimit="10" stroke-width="1.5"/>
    <ellipse id="Oval-3" data-name="Oval" cx="17.694" cy="21.54" rx="17.694" ry="21.54" transform="translate(809.795 209.271)" fill="#98c8db"/>
    <path id="Path-13" data-name="Path" d="M70.767,36.165V49.683H0V36.165C0,16.188,15.843,0,35.382,0S70.767,16.188,70.767,36.165Z" transform="translate(517.829 186.36)" fill="#212121" stroke="#59221d" stroke-linecap="round" stroke-miterlimit="10" stroke-width="1.5"/>
    <path id="Path-14" data-name="Path" d="M46.9,67.305c-15.18,0-27.486-15.066-27.486-33.654S31.713,0,46.9,0H27.486C12.306,0,0,15.066,0,33.651S12.3,67.305,27.486,67.305Z" transform="translate(509.768 197.16)" fill="#09343b"/>
    <ellipse id="Oval-4" data-name="Oval" cx="27.486" cy="33.654" rx="27.486" ry="33.654" transform="translate(529.181 197.157)" fill="#fff" stroke="#081b1e" stroke-linecap="round" stroke-miterlimit="10" stroke-width="1.5"/>
    <ellipse id="Oval-5" data-name="Oval" cx="17.694" cy="21.54" rx="17.694" ry="21.54" transform="translate(538.973 209.271)" fill="rgba(9,52,59,0.16)"/>
    <path id="Path-15" data-name="Path" d="M96.351,49.239V61.146H88.83V47.628c0-19.977-15.843-36.165-35.385-36.165s-35.382,16.2-35.382,36.165V61.146H0V49.239C0,22.044,21.57,0,48.174,0S96.351,22.044,96.351,49.239Z" transform="translate(499.766 174.897)" fill="#1eb7b3" stroke="#081b1e" stroke-miterlimit="10" stroke-width="1.5"/>
    <path id="Path-16" data-name="Path" d="M70.767,36.165V49.683H0V36.165C0,16.188,15.843,0,35.382,0S70.767,16.188,70.767,36.165Z" transform="translate(311.288 186.36)" fill="#212121" stroke="#59221d" stroke-linecap="round" stroke-miterlimit="10" stroke-width="1.5"/>
    <path id="Path-17" data-name="Path" d="M46.893,67.305c-15.18,0-27.486-15.066-27.486-33.654S31.707,0,46.893,0H27.486C12.306,0,0,15.066,0,33.651S12.3,67.305,27.486,67.305Z" transform="translate(303.233 197.16)" fill="#09343b"/>
    <ellipse id="Oval-6" data-name="Oval" cx="27.486" cy="33.654" rx="27.486" ry="33.654" transform="translate(322.64 197.157)" fill="#fff" stroke="#081b1e" stroke-linecap="round" stroke-miterlimit="10" stroke-width="1.5"/>
    <ellipse id="Oval-7" data-name="Oval" cx="17.694" cy="21.54" rx="17.694" ry="21.54" transform="translate(332.432 209.112)" fill="rgba(9,52,59,0.16)"/>
    <path id="Path-18" data-name="Path" d="M96.354,49.239V61.146H88.836V47.628c0-19.977-15.843-36.165-35.4-36.165s-35.382,16.2-35.382,36.165V61.146H0V49.239C0,22.044,21.57,0,48.174,0S96.354,22.044,96.354,49.239Z" transform="translate(293.219 174.897)" fill="#1eb7b3" stroke="#081b1e" stroke-miterlimit="10" stroke-width="1.5"/>
    <rect id="Rectangle-7" data-name="Rectangle" width="168.279" height="13.383" transform="translate(143.819 232.158)" fill="#09343b"/>
    <path id="Path-19" data-name="Path" d="M0,57.129H77.607a7.647,7.647,0,0,0,7.647-7.647V0h-46A20.52,20.52,0,0,0,20.589,12Z" transform="translate(337.301 57.477)" fill="#09343b"/>
    <path id="Path-20" data-name="Path" d="M88.329,0H41A23.241,23.241,0,0,0,19.86,13.593L0,57.129" transform="translate(333.611 53.481)" fill="none" stroke="#fff" stroke-linecap="round" stroke-linejoin="round" stroke-miterlimit="10" stroke-width="1.5"/>
    <path id="Path-21" data-name="Path" d="M88.29,6.771V69.9H59.4C52.044,49.416,28.383,37.833,0,37.833V0" transform="translate(334.265 123.405)" fill="none" stroke="#fff" stroke-linecap="round" stroke-linejoin="round" stroke-miterlimit="10" stroke-width="1.5"/>
    <path id="Path-22" data-name="Path" d="M80.622,57.219H0L47.5,0H97.122a8.055,8.055,0,0,1,7.332,11.4L84.846,54.5a4.65,4.65,0,0,1-4.224,2.715Z" transform="translate(242.297 57.477)" fill="#fff"/>
    <path id="Path-23" data-name="Path" d="M59.532,57.219H0L47.562,0H87.333a8.055,8.055,0,0,1,7.332,11.4L79.749,44.211A22.2,22.2,0,0,1,59.532,57.219Z" transform="translate(241.919 57.477)" fill="rgba(9,52,59,0.11)"/>
    <path id="Path-24" data-name="Path" d="M0,57.228H78.378a6.822,6.822,0,0,0,6.21-4L103.605,11.4A8.055,8.055,0,0,0,96.273,0h-48.4" transform="translate(242.519 57.468)" fill="none" stroke="#09343b" stroke-linecap="round" stroke-miterlimit="10" stroke-width="1.5"/>
    <path id="Path-25" data-name="Path" d="M0,5.616,15,0H39.411" transform="translate(279.692 108.99)" fill="none" stroke="#59221d" stroke-linecap="round" stroke-miterlimit="10" stroke-width="1.5"/>
    <path id="Path-26" data-name="Path" d="M0,54.579V5.34A5.283,5.283,0,0,1,5.226,0H45.7a5.283,5.283,0,0,1,5.226,5.34V54.579a5.283,5.283,0,0,1-5.226,5.34H5.214A5.283,5.283,0,0,1,0,54.579Z" transform="translate(168.719 167.463)" fill="#b7fffd"/>
    <g id="Group_9" data-name="Group 9" transform="translate(173.429 171.297)">
      <circle id="Oval-8" data-name="Oval" cx="1.524" cy="1.524" r="1.524" transform="translate(38.415 0)" fill="#ffc200"/>
      <circle id="Oval-9" data-name="Oval" cx="1.524" cy="1.524" r="1.524" transform="translate(0 0)" fill="#ffc200"/>
      <circle id="Oval-10" data-name="Oval" cx="1.524" cy="1.524" r="1.524" transform="translate(9.603 0)" fill="#ffc200"/>
      <circle id="Oval-11" data-name="Oval" cx="1.524" cy="1.524" r="1.524" transform="translate(19.209 0)" fill="#ffc200"/>
      <circle id="Oval-12" data-name="Oval" cx="1.524" cy="1.524" r="1.524" transform="translate(28.812 0)" fill="#ffc200"/>
      <circle id="Oval-13" data-name="Oval" cx="1.524" cy="1.524" r="1.524" transform="translate(33.615 4.956)" fill="#ffc200"/>
      <circle id="Oval-14" data-name="Oval" cx="1.524" cy="1.524" r="1.524" transform="translate(4.803 4.956)" fill="#ffc200"/>
      <circle id="Oval-15" data-name="Oval" cx="1.524" cy="1.524" r="1.524" transform="translate(14.406 4.956)" fill="#ffc200"/>
      <circle id="Oval-16" data-name="Oval" cx="1.524" cy="1.524" r="1.524" transform="translate(24.009 4.956)" fill="#ffc200"/>
      <circle id="Oval-17" data-name="Oval" cx="1.524" cy="1.524" r="1.524" transform="translate(38.415 9.912)" fill="#ffc200"/>
      <circle id="Oval-18" data-name="Oval" cx="1.524" cy="1.524" r="1.524" transform="translate(0 9.912)" fill="#ffc200"/>
      <circle id="Oval-19" data-name="Oval" cx="1.524" cy="1.524" r="1.524" transform="translate(9.603 9.912)" fill="#ffc200"/>
      <circle id="Oval-20" data-name="Oval" cx="1.524" cy="1.524" r="1.524" transform="translate(19.209 9.912)" fill="#ffc200"/>
      <circle id="Oval-21" data-name="Oval" cx="1.524" cy="1.524" r="1.524" transform="translate(28.812 9.912)" fill="#ffc200"/>
      <circle id="Oval-22" data-name="Oval" cx="1.524" cy="1.524" r="1.524" transform="translate(33.615 14.871)" fill="#ffc200"/>
      <circle id="Oval-23" data-name="Oval" cx="1.524" cy="1.524" r="1.524" transform="translate(4.803 14.871)" fill="#ffc200"/>
      <circle id="Oval-24" data-name="Oval" cx="1.524" cy="1.524" r="1.524" transform="translate(14.406 14.871)" fill="#ffc200"/>
      <circle id="Oval-25" data-name="Oval" cx="1.524" cy="1.524" r="1.524" transform="translate(24.009 14.871)" fill="#ffc200"/>
      <circle id="Oval-26" data-name="Oval" cx="1.524" cy="1.524" r="1.524" transform="translate(38.415 19.827)" fill="#ffc200"/>
      <circle id="Oval-27" data-name="Oval" cx="1.524" cy="1.524" r="1.524" transform="translate(0 19.827)" fill="#ffc200"/>
      <circle id="Oval-28" data-name="Oval" cx="1.524" cy="1.524" r="1.524" transform="translate(9.603 19.827)" fill="#ffc200"/>
      <circle id="Oval-29" data-name="Oval" cx="1.524" cy="1.524" r="1.524" transform="translate(19.209 19.827)" fill="#ffc200"/>
      <circle id="Oval-30" data-name="Oval" cx="1.524" cy="1.524" r="1.524" transform="translate(28.812 19.827)" fill="#ffc200"/>
      <circle id="Oval-31" data-name="Oval" cx="1.524" cy="1.524" r="1.524" transform="translate(33.615 24.786)" fill="#ffc200"/>
      <circle id="Oval-32" data-name="Oval" cx="1.524" cy="1.524" r="1.524" transform="translate(4.803 24.786)" fill="#ffc200"/>
      <circle id="Oval-33" data-name="Oval" cx="1.524" cy="1.524" r="1.524" transform="translate(14.406 24.786)" fill="#ffc200"/>
      <circle id="Oval-34" data-name="Oval" cx="1.524" cy="1.524" r="1.524" transform="translate(24.009 24.786)" fill="#ffc200"/>
      <circle id="Oval-35" data-name="Oval" cx="1.524" cy="1.524" r="1.524" transform="translate(38.415 29.742)" fill="#ffc200"/>
      <circle id="Oval-36" data-name="Oval" cx="1.524" cy="1.524" r="1.524" transform="translate(0 29.742)" fill="#ffc200"/>
      <circle id="Oval-37" data-name="Oval" cx="1.524" cy="1.524" r="1.524" transform="translate(9.603 29.742)" fill="#ffc200"/>
      <circle id="Oval-38" data-name="Oval" cx="1.524" cy="1.524" r="1.524" transform="translate(19.209 29.742)" fill="#ffc200"/>
      <circle id="Oval-39" data-name="Oval" cx="1.524" cy="1.524" r="1.524" transform="translate(28.812 29.742)" fill="#ffc200"/>
      <circle id="Oval-40" data-name="Oval" cx="1.524" cy="1.524" r="1.524" transform="translate(33.615 34.698)" fill="#ffc200"/>
      <circle id="Oval-41" data-name="Oval" cx="1.524" cy="1.524" r="1.524" transform="translate(4.803 34.698)" fill="#ffc200"/>
      <circle id="Oval-42" data-name="Oval" cx="1.524" cy="1.524" r="1.524" transform="translate(14.406 34.698)" fill="#ffc200"/>
      <circle id="Oval-43" data-name="Oval" cx="1.524" cy="1.524" r="1.524" transform="translate(24.009 34.698)" fill="#ffc200"/>
      <circle id="Oval-44" data-name="Oval" cx="1.524" cy="1.524" r="1.524" transform="translate(38.415 39.657)" fill="#ffc200"/>
      <circle id="Oval-45" data-name="Oval" cx="1.524" cy="1.524" r="1.524" transform="translate(0 39.657)" fill="#ffc200"/>
      <circle id="Oval-46" data-name="Oval" cx="1.524" cy="1.524" r="1.524" transform="translate(9.603 39.657)" fill="#ffc200"/>
      <circle id="Oval-47" data-name="Oval" cx="1.524" cy="1.524" r="1.524" transform="translate(19.209 39.657)" fill="#ffc200"/>
      <circle id="Oval-48" data-name="Oval" cx="1.524" cy="1.524" r="1.524" transform="translate(28.812 39.657)" fill="#ffc200"/>
      <circle id="Oval-49" data-name="Oval" cx="1.524" cy="1.524" r="1.524" transform="translate(33.615 44.613)" fill="#ffc200"/>
      <circle id="Oval-50" data-name="Oval" cx="1.524" cy="1.524" r="1.524" transform="translate(4.803 44.613)" fill="#ffc200"/>
      <circle id="Oval-51" data-name="Oval" cx="1.524" cy="1.524" r="1.524" transform="translate(14.406 44.613)" fill="#ffc200"/>
      <circle id="Oval-52" data-name="Oval" cx="1.524" cy="1.524" r="1.524" transform="translate(24.009 44.613)" fill="#ffc200"/>
      <circle id="Oval-53" data-name="Oval" cx="1.524" cy="1.524" r="1.524" transform="translate(38.415 49.569)" fill="#ffc200"/>
      <circle id="Oval-54" data-name="Oval" cx="1.524" cy="1.524" r="1.524" transform="translate(0 49.569)" fill="#ffc200"/>
      <circle id="Oval-55" data-name="Oval" cx="1.524" cy="1.524" r="1.524" transform="translate(9.603 49.569)" fill="#ffc200"/>
      <circle id="Oval-56" data-name="Oval" cx="1.524" cy="1.524" r="1.524" transform="translate(19.209 49.569)" fill="#ffc200"/>
      <circle id="Oval-57" data-name="Oval" cx="1.524" cy="1.524" r="1.524" transform="translate(28.812 49.569)" fill="#ffc200"/>
    </g>
    <rect id="Rectangle-8" data-name="Rectangle" width="36.873" height="6.315" transform="translate(389.573 225.843)" fill="#09343b" stroke="#09343b" stroke-linecap="round" stroke-miterlimit="10" stroke-width="1.5"/>
    <g id="BODY" transform="translate(367.319 78.981)">
      <path id="Path-27" data-name="Path" d="M11.121,0H41.229A13.953,13.953,0,0,1,55.182,13.953v13.8a7.713,7.713,0,0,1-7.713,7.707H0V11.121A11.121,11.121,0,0,1,11.121,0Z" transform="translate(0.051 0.24)" fill="#e3e8e9"/>
      <path id="Path-28" data-name="Path" d="M14.5.006a4.35,4.35,0,0,1-.777,2.1A5.187,5.187,0,0,1,9.444,4.239H6.474L2.142,35.466H.642L4.98,4.152A6.081,6.081,0,0,1,0,.006H1.542A4.855,4.855,0,0,0,6.06,2.736h3.4a3.681,3.681,0,0,0,3.045-1.5A2.829,2.829,0,0,0,13,0Z" transform="translate(17.139 0.234)" fill="#09343b"/>
    </g>
    <g id="HAND" transform="translate(343.919 78.981)">
      <path id="Path-29" data-name="Path" d="M38.871,0A11.049,11.049,0,0,1,49.842,11.046V27.075c0,10.614-3.6,20.256-18.8,19.218L.045,40.5c2.124-.054,3.837-3.987,3.837-8.835S2.142,22.827,0,22.827l29.553.159V9.024a9,9,0,0,1,9.075-9Z" transform="translate(28.794 0.225)" fill="#fff"/>
      <ellipse id="Oval-58" data-name="Oval" cx="3.882" cy="8.838" rx="3.882" ry="8.838" transform="translate(24.912 23.037)" fill="#09343b"/>
      <path id="Path-30" data-name="Path" d="M30.876,6.393c0,3.534-1.1,6.4-2.466,6.4H2.1a2.115,2.115,0,0,1-1.8-3.2,2.148,2.148,0,0,1,.84-.771L12.612,3.06A28.563,28.563,0,0,1,25.479,0H28.41C29.772,0,30.876,2.862,30.876,6.393Z" transform="translate(0.243 23.04)" fill="#fff"/>
      <path id="Path-31" data-name="Path" d="M10.128,0,1.572,3.507A2.529,2.529,0,0,0,0,5.85" transform="translate(4.23 29.244)" fill="none" stroke="#09343b" stroke-linecap="round" stroke-miterlimit="10" stroke-width="1.2"/>
      <path id="Path-32" data-name="Path" d="M8.265,0,1.572,2.742A2.529,2.529,0,0,0,0,5.085" transform="translate(11.763 30)" fill="none" stroke="#09343b" stroke-linecap="round" stroke-miterlimit="10" stroke-width="1.2"/>
    </g>
    <g id="NECK" transform="translate(385.619 72.081)">
      <path id="Path-33" data-name="Path" d="M11.382,7.8h0a3.12,3.12,0,0,1-.261.45,3.681,3.681,0,0,1-3.045,1.5h-3.4A5.4,5.4,0,0,1,2.751,9.4,4.578,4.578,0,0,1,.3,7.3,5,5,0,0,1,0,5.553v-.7L9.651,0l1.731,5.433a3.879,3.879,0,0,1,0,2.364Z" transform="translate(0.213 0.117)" fill="#fff"/>
      <path id="Path-34" data-name="Path" d="M9.792.819a2.721,2.721,0,0,1-.429,1.464l-6.6,7.1A4.5,4.5,0,0,1,.171,7,6,6,0,0,1,0,5.553v-.7L9.651,0A2.727,2.727,0,0,1,9.792.819Z" transform="translate(0.186 0.138)" fill="rgba(9,52,59,0.2)"/>
    </g>
    <g id="HEAD" transform="translate(381.119 61.281)">
      <g id="EAR" transform="translate(14.1 6)">
        <path id="Path-35" data-name="Path" d="M0,0H2.148A2.139,2.139,0,0,1,4.287,2.139v.885A2.139,2.139,0,0,1,2.148,5.163H.009V0Z" transform="translate(0.252 0.087)" fill="#fff"/>
        <path id="Path-36" data-name="Path" d="M0,1.581A1.581,1.581,0,0,1,1.581,0" transform="translate(1.272 1.446)" fill="none" stroke="#09343b" stroke-linecap="round" stroke-miterlimit="10" stroke-width="0.6"/>
      </g>
      <path id="HEAD-2" d="M12.148,1.443V6.981L9.8,9.825a4.6,4.6,0,0,1-3.549,1.686H2.5A2.526,2.526,0,0,1,.1,8.292L2.416,0Z" transform="translate(2.204 4.275)" fill="#fff"/>
      <path id="BEARD" d="M14.658.882H13.4a1.254,1.254,0,0,0-1.254,1.257V6.057L9.8,8.9a4.6,4.6,0,0,1-3.552,1.686H2.5A2.526,2.526,0,0,1,.1,7.365L.777,4.926H9.924a1.089,1.089,0,0,0,1.086-1.1v-.75a2.844,2.844,0,0,0-.687-1.83A3.3,3.3,0,0,0,8.613,0Z" transform="translate(2.202 5.205)" fill="#09343b"/>
      <g id="FACE" transform="translate(3.9 5.4)">
        <path id="Path-37" data-name="Path" d="M0,0,1.755.339S.588,4.971,1.728,5.073" transform="translate(0.411)" fill="none" stroke="#09343b" stroke-linecap="round" stroke-miterlimit="10" stroke-width="0.6"/>
        <ellipse id="Oval-59" data-name="Oval" cx="0.387" cy="0.678" rx="0.387" ry="0.678" transform="translate(4.308 1.626)" fill="#09343b"/>
        <ellipse id="Oval-60" data-name="Oval" cx="0.387" cy="0.678" rx="0.387" ry="0.678" transform="translate(0.228 1.626)" fill="#09343b"/>
        <path id="Path-38" data-name="Path" d="M0,0S1.5.246,2.307.414" transform="translate(4.356 0.48)" fill="none" stroke="#09343b" stroke-linecap="round" stroke-miterlimit="10" stroke-width="0.6"/>
      </g>
      <path id="CAP" d="M.556,3.536a.6.6,0,0,1-.549-.69.663.663,0,0,1,.771-.492L5.107,3A5.549,5.549,0,0,1,10.417.023C16.8.587,16.8,5.93,16.8,5.93Z" transform="translate(0.068 0.157)" fill="#1eb7b3"/>
    </g>
    <rect id="BOX" width="89.916" height="84.453" transform="translate(934.94 112.656)" fill="#1eb7b3"/>
    <path id="Path-39" data-name="Path" d="M10.284,0l43.9.642L53.5,3.567A10.779,10.779,0,0,1,43,11.9H0Z" transform="translate(975.956 328.116)" fill="#081b1e"/>
    <path id="Path-40" data-name="Path" d="M51.972,11.32l.177,3.036a.9.9,0,0,1-.9.9H48.3A.9.9,0,0,1,47.658,15a.864.864,0,0,1-.27-.627.9.9,0,0,0-.9-.9H43.575a.924.924,0,0,0-.642.258.861.861,0,0,0-.267.627.9.9,0,0,1-.9.9H38.82A.921.921,0,0,1,38.175,15a.852.852,0,0,1-.267-.627.9.9,0,0,0-.9-.9H34.1a.921.921,0,0,0-.639.261.864.864,0,0,0-.27.627.9.9,0,0,1-.9.9H29.337A.918.918,0,0,1,28.7,15a.861.861,0,0,1-.27-.624.9.9,0,0,0-.9-.885h-2.91a.924.924,0,0,0-.642.258.9.9,0,0,0-.267.63.9.9,0,0,1-.9.885H19.86A.921.921,0,0,1,19.218,15a.867.867,0,0,1-.27-.624.9.9,0,0,0-.9-.882H15.135a.915.915,0,0,0-.639.261.858.858,0,0,0-.27.624.9.9,0,0,1-.9.9H10.377a.927.927,0,0,1-.645-.258.879.879,0,0,1-.267-.627.9.9,0,0,0-.9-.9H5.655a.921.921,0,0,0-.642.258.861.861,0,0,0-.267.627.9.9,0,0,1-.9.9H.9a.9.9,0,0,1-.9-.9V11.26H40.659L41.1,9.571A13.842,13.842,0,0,1,54.462,0l-2.4,11.259Z" transform="translate(975.782 328.694)" fill="#1eb7b3"/>
    <path id="Path-41" data-name="Path" d="M0,40.9,3.858,0,6.72.9A10.782,10.782,0,0,1,14.2,12.024L10.782,54.888Z" transform="translate(1122.674 285.417)" fill="#081b1e"/>
    <path id="Path-42" data-name="Path" d="M14.938,4.323,14.71,7.26a.924.924,0,0,1-.3.621.858.858,0,0,1-.645.219.9.9,0,0,0-.954.834l-.225,2.9a.939.939,0,0,0,.207.66.861.861,0,0,0,.6.3.9.9,0,0,1,.813.978l-.228,2.937a.924.924,0,0,1-.3.621.858.858,0,0,1-.645.219.9.9,0,0,0-.954.834l-.228,2.9a.927.927,0,0,0,.21.66.861.861,0,0,0,.6.3.9.9,0,0,1,.81.978l-.225,2.937a.924.924,0,0,1-.3.621.879.879,0,0,1-.645.219.9.9,0,0,0-.954.834l-.228,2.9a.93.93,0,0,0,.207.66.873.873,0,0,0,.6.315.9.9,0,0,1,.81.978l-.228,2.937a.918.918,0,0,1-.3.618.9.9,0,0,1-.648.222.9.9,0,0,0-.948.834l-.228,2.9a.942.942,0,0,0,.207.66.867.867,0,0,0,.6.3A.9.9,0,0,1,12,42.15l-.228,2.937a.924.924,0,0,1-.3.621.879.879,0,0,1-.645.219.9.9,0,0,0-.954.834l-.225,2.9a.942.942,0,0,0,.207.66.867.867,0,0,0,.6.3.9.9,0,0,1,.813.978l-.228,2.937a.9.9,0,0,1-.954.84l-3.111-.246L10.2,14.6l-1.668-.528A13.839,13.839,0,0,1,.061,0L11.089,3.3V3.276l3.042.066A.9.9,0,0,1,14.938,4.323Z" transform="translate(1126.483 285.405)" fill="#1eb7b3"/>
    <path id="Path-43" data-name="Path" d="M123.4,14.33V71.453H74.145c-8.262,0-16.236-5.055-15.9-14.7L27.681,98.291h0c-1.8,2.361-9.333-.3-16.869-5.952S-1.4,80.171.378,77.8l-.027.027L52.608,6.941A17.049,17.049,0,0,1,66.609,0h42.483A14.316,14.316,0,0,1,123.4,14.33Z" transform="translate(962.795 93.952)" fill="#fff" stroke="#09343b" stroke-linecap="round" stroke-miterlimit="10" stroke-width="1.5"/>
    <path id="Shape" d="M0,234.948,34.608,57.717a.534.534,0,0,1,1.044-.03c.994,3.969,3.325,8.528,6.246,10.652a5.34,5.34,0,0,0,7.726-1.722L71.2,29.175,56.979,6.9A15.874,15.874,0,0,0,43.893,0H56.118a8.527,8.527,0,0,1,7.1,3.816L74.871,22.848,85.827,3.831A8.571,8.571,0,0,1,90.138.489a14.341,14.341,0,0,1,5.4,2.772,15.943,15.943,0,0,0-3.47,3.649l-13,22.8,22.1,36.165v74.259a54.273,54.273,0,0,0,40.068,52.384l-4.8,40.635L110.8,226.746C77.745,215.7,62.307,188.316,62.307,158.3L43.9,235.593Z" transform="translate(986.237 93.165)" fill="#09343b"/>
    <path id="Path-44" data-name="Path" d="M0,24.633,16.632,0" transform="translate(1019.78 127.758)" fill="none" stroke="#09343b" stroke-linecap="round" stroke-miterlimit="10" stroke-width="1.5"/>
    <path id="Path-45" data-name="Path" d="M0,56.745,10.245,0h7.983" transform="translate(1047.851 194.718)" fill="none" stroke="#081b1e" stroke-linecap="round" stroke-miterlimit="10" stroke-width="1.5"/>
    <path id="Path-46" data-name="Path" d="M49.727,15.429C46.487,18.78,43.5,22,42.776,22.515,37.931,26,29.912,31.146,14.933,31.143,11.1,31.143,3.863,24.1.374,20.2c-.846-.942-.162-2.835,1.1-2.811,5.4.1,13.2-.531,14.952-3.138,3.18-4.689-7.4-1.716-7.1-6.258,0,0,15-4.3,20.592-7.989A39.342,39.342,0,0,0,39.32,9.516,42.149,42.149,0,0,0,49.727,15.429Z" transform="translate(934.281 176.79)" fill="#fff" stroke="#09343b" stroke-miterlimit="10" stroke-width="1.5"/>
    <path id="Path-47" data-name="Path" d="M21.516,15.426c-1.755,1.8-3.432,3.6-4.722,4.914l-.165-.063C5.673,16.326.876,3.609,0,1H0A19.311,19.311,0,0,0,1.716,0a39.342,39.342,0,0,0,9.393,9.516A42.225,42.225,0,0,0,21.516,15.426Z" transform="translate(962.492 176.793)" fill="#09343b"/>
    <path id="Path-48" data-name="Path" d="M12.417,0A37.488,37.488,0,0,1,0,1.893" transform="translate(944.972 203.454)" fill="none" stroke="#09343b" stroke-linecap="round" stroke-miterlimit="10" stroke-width="1.2"/>
    <path id="Path-49" data-name="Path" d="M13.215,0A42.822,42.822,0,0,1,0,1.893" transform="translate(941.135 200.262)" fill="none" stroke="#09343b" stroke-linecap="round" stroke-miterlimit="10" stroke-width="1.2"/>
    <path id="Path-50" data-name="Path" d="M14.4,0A51.455,51.455,0,0,1,0,1.893" transform="translate(938.105 197.07)" fill="none" stroke="#09343b" stroke-linecap="round" stroke-miterlimit="10" stroke-width="1.2"/>
    <path id="Path-51" data-name="Path" d="M0,16.131V7.8L12.405,0l9.342,16.131Z" transform="translate(1045.364 77.037)" fill="#fff" stroke="#09343b" stroke-miterlimit="10" stroke-width="1.5"/>
    <path id="Path-52" data-name="Path" d="M0,16.128V7.8L12.405,0h0a4.824,4.824,0,0,1-1.068,6.108Z" transform="translate(1045.364 77.04)" fill="#09343b"/>
    <path id="Path-53" data-name="Path" d="M20.057,10.68a3.873,3.873,0,0,1-3.87,3.867h-1.3a4.875,4.875,0,0,1-4.842,4.3H7a5.175,5.175,0,0,1-5.175-5.175v-.876H.737a.735.735,0,0,1-.687-1L1.823,7.236C1.823,3.24,5.462,0,9.458,0h1a6.726,6.726,0,0,1,6.3,4.458l.954,2.661A3.873,3.873,0,0,1,20.057,10.68Z" transform="translate(1038.366 66.459)" fill="#fff" stroke="#09343b" stroke-miterlimit="10" stroke-width="1.5"/>
    <path id="Path-54" data-name="Path" d="M0,2A1.992,1.992,0,0,1,1.992,0" transform="translate(1053.077 75.66)" fill="none" stroke="#09343b" stroke-linecap="round" stroke-miterlimit="10" stroke-width="0.9"/>
    <path id="Path-55" data-name="Path" d="M0,0A11.423,11.423,0,0,1,3.7.6" transform="translate(1041.662 72.309)" fill="none" stroke="#09343b" stroke-linecap="round" stroke-miterlimit="10" stroke-width="0.9"/>
    <ellipse id="Oval-61" data-name="Oval" cx="0.726" cy="0.993" rx="0.726" ry="0.993" transform="translate(1042.19 74.754)" fill="#09343b"/>
    <path id="Path-56" data-name="Path" d="M0,2.313A2.313,2.313,0,0,1,2.313,0H4.458" transform="translate(1050.986 73.272)" fill="none" stroke="#09343b" stroke-linecap="round" stroke-miterlimit="10" stroke-width="0.9"/>
    <path id="Path-57" data-name="Path" d="M21.588.243c3.5-1.917,13.458,8.1,12.075,9.816-2,2.5-6.567-1.674-7.044,1.047-.558,3.2,14.433,17.211,11.9,20.136s-17.94,5.55-24.3,1.1C10.758,29.913,3.9,21.327,0,15.537-.009,15.543,13.242,4.809,21.588.243Z" transform="translate(842.858 204.438)" fill="#fff" stroke="#09343b" stroke-linecap="round" stroke-miterlimit="10" stroke-width="1.5"/>
    <path id="Path-58" data-name="Path" d="M8.628,8.061C7.2,7.062,1.98,1.839,0,0" transform="translate(859.16 230.769)" fill="none" stroke="#59221d" stroke-linecap="round" stroke-miterlimit="10" stroke-width="1.5"/>
    <path id="Path-59" data-name="Path" d="M10.548,9.72C9.12,8.718,1.908,2.019,0,0" transform="translate(863.969 228.606)" fill="none" stroke="#59221d" stroke-linecap="round" stroke-miterlimit="10" stroke-width="1.5"/>
    <path id="Path-60" data-name="Path" d="M9.876,10.542C8.448,9.54,1.911,2.022,0,0" transform="translate(869.243 226.437)" fill="none" stroke="#59221d" stroke-linecap="round" stroke-miterlimit="10" stroke-width="1.5"/>
    <path id="Path-61" data-name="Path" d="M87.072,102.269C75.2,120.683,53.85,122.846,53.85,122.846L2.331,29.2A19.008,19.008,0,0,1,9.891,3.4L11.847,2.33a19.011,19.011,0,0,1,25.8,7.563Z" transform="translate(783.467 99.538)" fill="#09343b"/>
    <path id="Path-62" data-name="Path" d="M186.429,22.659,154.356,86.124l27.9,49.077V235.209a161.207,161.207,0,0,0-21.624-1.4,150.6,150.6,0,0,0-29.4,2.7v-90.27l-20.919-36.063L54.156,231.423h0a126.855,126.855,0,0,0-20.379-1.6c-12.735,0-24.429,1.764-33.618,4.713Q0,232.74,0,230.964a39.84,39.84,0,0,1,4.71-18.795L100.488,14.316C105.864,4.416,112.74,0,124,0h48.495A15.618,15.618,0,0,1,186.429,22.659Z" transform="translate(632.765 99.933)" fill="#1eb7b3"/>
    <path id="Path-63" data-name="Path" d="M0,16.179,7.7,0" transform="translate(743.099 193.938)" fill="none" stroke="#09343b" stroke-linecap="round" stroke-linejoin="round" stroke-miterlimit="10" stroke-width="1.5"/>
    <path id="Path-64" data-name="Path" d="M2.859,0,80.322,22.647,77.466,28.68,0,5.718" transform="translate(709.097 158.01)" fill="none" stroke="#081b1e" stroke-linecap="round" stroke-linejoin="round" stroke-miterlimit="10" stroke-width="1.5"/>
    <path id="Path-65" data-name="Path" d="M20.946,0A16.857,16.857,0,0,1,0,11.373" transform="translate(702.584 168.351)" fill="none" stroke="#081b1e" stroke-linecap="round" stroke-linejoin="round" stroke-miterlimit="10" stroke-width="1.5"/>
    <path id="Path-66" data-name="Path" d="M0,10.977,15.864,0l8.871,10.686V20.34a5.019,5.019,0,0,1-8.154,3.9Z" transform="translate(768.986 88.959)" fill="#fff" stroke="#081b1e" stroke-linecap="round" stroke-miterlimit="10" stroke-width="1.5"/>
    <path id="Path-67" data-name="Path" d="M4.947,14.241,0,10.137,14.265,0l5.913,7.119L4.947,14.241Z" transform="translate(770.327 89.823)" fill="#98c8db"/>
    <path id="Path-68" data-name="Path" d="M16.437,23.265l-3.3-.066A6.9,6.9,0,0,1,6.39,16.05l.084-2.229h-3A3.471,3.471,0,0,1,0,10.347V8.481A3.471,3.471,0,0,1,3.474,5.007H5.34a3.423,3.423,0,0,1,1.7.444A7.68,7.68,0,0,1,14.433,0c5.517,0,7.011,2.853,7.521,6.624l1.233,9.09a6.66,6.66,0,0,1-6.75,7.551Z" transform="translate(780.848 80.796)" fill="#fff" stroke="#081b1e" stroke-linecap="round" stroke-miterlimit="10" stroke-width="1.5"/>
    <path id="Path-69" data-name="Path" d="M5.157,9.213l.666,1.2h0a1.107,1.107,0,0,0,1.116-1.1V6.5A4.536,4.536,0,0,1,11.505,2h0a8.379,8.379,0,0,1,7.734,5.1l.03.069V6.336A6.381,6.381,0,0,0,12.846,0H6.435A6.381,6.381,0,0,0,.015,6.234L0,7.179H1.593A4.056,4.056,0,0,1,5.157,9.213Z" transform="translate(783.68 79.224)" fill="#09343b"/>
    <path id="Path-70" data-name="Path" d="M1.671,1.674A1.674,1.674,0,0,0,0,0" transform="translate(784.85 88.959)" fill="none" stroke="#081b1e" stroke-linecap="round" stroke-linejoin="round" stroke-miterlimit="10" stroke-width="1.2"/>
    <path id="Path-71" data-name="Path" d="M0,0A2.128,2.128,0,0,0,2.823,1" transform="translate(795.38 96.642)" fill="none" stroke="#081b1e" stroke-linecap="round" stroke-linejoin="round" stroke-miterlimit="10" stroke-width="1.2"/>
    <path id="Path-72" data-name="Path" d="M4.5,0H1.868A1.821,1.821,0,0,0,.044,1.74c-.066,1.623-.219,4.053.975,5.79" transform="translate(798.123 86.892)" fill="none" stroke="#081b1e" stroke-linecap="round" stroke-linejoin="round" stroke-miterlimit="10" stroke-width="1.2"/>
    <ellipse id="Oval-62" data-name="Oval" cx="0.675" cy="1.167" rx="0.675" ry="1.167" transform="translate(799.817 89.028)" fill="#081b1e"/>
    <ellipse id="Oval-63" data-name="Oval" cx="0.675" cy="1.167" rx="0.675" ry="1.167" transform="translate(793.811 89.028)" fill="#081b1e"/>
    <path id="Path-73" data-name="Path" d="M0,.15H2.8" transform="translate(792.578 86.742)" fill="none" stroke="#081b1e" stroke-linecap="round" stroke-linejoin="round" stroke-miterlimit="10" stroke-width="1.2"/>
    <path id="Path-74" data-name="Path" d="M57.864,15.54H2.535A39.843,39.843,0,0,1,0,4.713C9.189,1.764,20.883,0,33.618,0A126.855,126.855,0,0,1,54,1.6Z" transform="translate(632.945 329.766)" fill="#09343b"/>
    <path id="Path-75" data-name="Path" d="M57.261,11.56H0V2.7A150.143,150.143,0,0,1,29.4,0,161.205,161.205,0,0,1,51.024,1.4v.066Z" transform="translate(764.018 333.746)" fill="#09343b"/>
    <rect id="Rectangle-9" data-name="Rectangle" width="111.777" height="81.042" transform="translate(811.376 209.664)" fill="#fff" stroke="#1eb7b3" stroke-miterlimit="10" stroke-width="1.5"/>
    <rect id="Rectangle-10" data-name="Rectangle" width="79.845" height="1.587" transform="translate(812.144 218.715)" fill="#98c8db"/>
    <rect id="Rectangle-11" data-name="Rectangle" width="79.845" height="1.587" transform="translate(812.144 279.552)" fill="#98c8db"/>
    <path id="Path-76" data-name="Path" d="M36.288,0,0,43.47V0Z" transform="translate(812.141 234.192)" fill="#98c8db"/>
    <rect id="Rectangle-12" data-name="Rectangle" width="30.486" height="79.377" transform="translate(891.989 210.495)" fill="#98c8db"/>
    <path id="Shape-2" data-name="Shape" d="M0,62.427V60.837H30.372v1.589ZM0,1.587V0H30.372V1.587Z" transform="translate(891.989 218.715)" fill="#fff"/>
    <rect id="Rectangle-13" data-name="Rectangle" width="49.788" height="53.898" transform="translate(795.716 290.724)" fill="#fff" stroke="#1eb7b3" stroke-miterlimit="10" stroke-width="1.5"/>
    <g id="Group_10" data-name="Group 10" transform="translate(799.754 295.515)">
      <circle id="Oval-64" data-name="Oval" cx="1.572" cy="1.572" r="1.572" transform="translate(29.853 0)" fill="#ffc200"/>
      <circle id="Oval-65" data-name="Oval" cx="1.572" cy="1.572" r="1.572" transform="translate(19.944 0)" fill="#ffc200"/>
      <circle id="Oval-66" data-name="Oval" cx="1.572" cy="1.572" r="1.572" transform="translate(39.759 0)" fill="#ffc200"/>
      <circle id="Oval-67" data-name="Oval" cx="1.572" cy="1.572" r="1.572" transform="translate(10.038 0)" fill="#ffc200"/>
      <circle id="Oval-68" data-name="Oval" cx="1.572" cy="1.572" r="1.572" transform="translate(24.9 5.166)" fill="#ffc200"/>
      <circle id="Oval-69" data-name="Oval" cx="1.572" cy="1.572" r="1.572" transform="translate(14.991 5.166)" fill="#ffc200"/>
      <circle id="Oval-70" data-name="Oval" cx="1.572" cy="1.572" r="1.572" transform="translate(34.806 5.166)" fill="#ffc200"/>
      <circle id="Oval-71" data-name="Oval" cx="1.572" cy="1.572" r="1.572" transform="translate(29.853 10.329)" fill="#ffc200"/>
      <circle id="Oval-72" data-name="Oval" cx="1.572" cy="1.572" r="1.572" transform="translate(19.944 10.329)" fill="#ffc200"/>
      <circle id="Oval-73" data-name="Oval" cx="1.572" cy="1.572" r="1.572" transform="translate(39.759 10.329)" fill="#ffc200"/>
      <circle id="Oval-74" data-name="Oval" cx="1.572" cy="1.572" r="1.572" transform="translate(10.038 10.329)" fill="#ffc200"/>
      <circle id="Oval-75" data-name="Oval" cx="1.572" cy="1.572" r="1.572" transform="translate(24.9 15.495)" fill="#ffc200"/>
      <circle id="Oval-76" data-name="Oval" cx="1.572" cy="1.572" r="1.572" transform="translate(14.991 15.495)" fill="#ffc200"/>
      <circle id="Oval-77" data-name="Oval" cx="1.572" cy="1.572" r="1.572" transform="translate(34.806 15.495)" fill="#ffc200"/>
      <circle id="Oval-78" data-name="Oval" cx="1.572" cy="1.572" r="1.572" transform="translate(29.853 20.658)" fill="#ffc200"/>
      <circle id="Oval-79" data-name="Oval" cx="1.572" cy="1.572" r="1.572" transform="translate(19.944 20.658)" fill="#ffc200"/>
      <circle id="Oval-80" data-name="Oval" cx="1.572" cy="1.572" r="1.572" transform="translate(39.759 20.658)" fill="#ffc200"/>
      <circle id="Oval-81" data-name="Oval" cx="1.572" cy="1.572" r="1.572" transform="translate(10.038 20.658)" fill="#ffc200"/>
      <circle id="Oval-82" data-name="Oval" cx="1.572" cy="1.572" r="1.572" transform="translate(24.9 25.821)" fill="#ffc200"/>
      <circle id="Oval-83" data-name="Oval" cx="1.572" cy="1.572" r="1.572" transform="translate(14.991 25.821)" fill="#ffc200"/>
      <circle id="Oval-84" data-name="Oval" cx="1.572" cy="1.572" r="1.572" transform="translate(34.806 25.821)" fill="#ffc200"/>
      <circle id="Oval-85" data-name="Oval" cx="1.572" cy="1.572" r="1.572" transform="translate(29.853 30.987)" fill="#ffc200"/>
      <circle id="Oval-86" data-name="Oval" cx="1.572" cy="1.572" r="1.572" transform="translate(19.944 30.987)" fill="#ffc200"/>
      <circle id="Oval-87" data-name="Oval" cx="1.572" cy="1.572" r="1.572" transform="translate(39.759 30.987)" fill="#ffc200"/>
      <circle id="Oval-88" data-name="Oval" cx="1.572" cy="1.572" r="1.572" transform="translate(10.038 30.987)" fill="#ffc200"/>
      <circle id="Oval-89" data-name="Oval" cx="1.572" cy="1.572" r="1.572" transform="translate(24.9 36.15)" fill="#ffc200"/>
      <circle id="Oval-90" data-name="Oval" cx="1.572" cy="1.572" r="1.572" transform="translate(14.991 36.15)" fill="#ffc200"/>
      <circle id="Oval-91" data-name="Oval" cx="1.572" cy="1.572" r="1.572" transform="translate(34.806 36.15)" fill="#ffc200"/>
      <circle id="Oval-92" data-name="Oval" cx="1.572" cy="1.572" r="1.572" transform="translate(29.853 41.313)" fill="#ffc200"/>
      <circle id="Oval-93" data-name="Oval" cx="1.572" cy="1.572" r="1.572" transform="translate(19.944 41.313)" fill="#ffc200"/>
      <circle id="Oval-94" data-name="Oval" cx="1.572" cy="1.572" r="1.572" transform="translate(39.759 41.313)" fill="#ffc200"/>
      <circle id="Oval-95" data-name="Oval" cx="1.572" cy="1.572" r="1.572" transform="translate(10.038 41.313)" fill="#ffc200"/>
      <circle id="Oval-96" data-name="Oval" cx="1.572" cy="1.572" r="1.572" transform="translate(0 0)" fill="#ffc200"/>
      <circle id="Oval-97" data-name="Oval" cx="1.572" cy="1.572" r="1.572" transform="translate(4.953 5.166)" fill="#ffc200"/>
      <circle id="Oval-98" data-name="Oval" cx="1.572" cy="1.572" r="1.572" transform="translate(0 10.329)" fill="#ffc200"/>
      <circle id="Oval-99" data-name="Oval" cx="1.572" cy="1.572" r="1.572" transform="translate(4.953 15.495)" fill="#ffc200"/>
      <circle id="Oval-100" data-name="Oval" cx="1.572" cy="1.572" r="1.572" transform="translate(0 20.658)" fill="#ffc200"/>
      <circle id="Oval-101" data-name="Oval" cx="1.572" cy="1.572" r="1.572" transform="translate(4.953 25.821)" fill="#ffc200"/>
      <circle id="Oval-102" data-name="Oval" cx="1.572" cy="1.572" r="1.572" transform="translate(0 30.987)" fill="#ffc200"/>
      <circle id="Oval-103" data-name="Oval" cx="1.572" cy="1.572" r="1.572" transform="translate(4.953 36.15)" fill="#ffc200"/>
      <circle id="Oval-104" data-name="Oval" cx="1.572" cy="1.572" r="1.572" transform="translate(0 41.313)" fill="#ffc200"/>
    </g>
    <rect id="Rectangle-14" data-name="Rectangle" width="108.279" height="53.898" transform="translate(845.504 290.724)" fill="#fff" stroke="#1eb7b3" stroke-miterlimit="10" stroke-width="1.5"/>
    <path id="Path-77" data-name="Path" d="M54.429,25.869c-4.695,4-13.8,11.139-18.273,10.533-17.487-2.373-26.037-9.66-31.137-14.49A44.6,44.6,0,0,1,.7,16.626h0L0,15.7A57.446,57.446,0,0,0,15.111,9.3,59.81,59.81,0,0,0,27.711,0a31.887,31.887,0,0,0,4.416,3.171A113.145,113.145,0,0,0,46.38,10.239c-.366,5.352-12.3.669-9.345,6.648,1.65,3.324,10.2,5.229,16.5,5.97a1.71,1.71,0,0,1,.894,3.012Z" transform="translate(792.446 209.193)" fill="#fff" stroke="#09343b" stroke-linecap="round" stroke-miterlimit="10" stroke-width="1.5"/>
    <path id="Path-78" data-name="Path" d="M0,0A53.731,53.731,0,0,0,15.6,4.368" transform="translate(819.767 239.07)" fill="none" stroke="#09343b" stroke-linecap="round" stroke-miterlimit="10" stroke-width="1.5"/>
    <path id="Path-79" data-name="Path" d="M0,0A57.924,57.924,0,0,0,16.2,4.5" transform="translate(823.823 235.824)" fill="none" stroke="#09343b" stroke-linecap="round" stroke-miterlimit="10" stroke-width="1.5"/>
    <path id="Path-80" data-name="Path" d="M0,0A60.106,60.106,0,0,0,16.524,4.5" transform="translate(827.879 232.581)" fill="none" stroke="#09343b" stroke-linecap="round" stroke-miterlimit="10" stroke-width="1.5"/>
    <path id="Path-81" data-name="Path" d="M32.121,3.186C29.31,5.8,24.09,9,17.8,11.787c-6.786,3-13.239,4.734-17.1,4.839h0L0,15.7A57.446,57.446,0,0,0,15.111,9.3,59.81,59.81,0,0,0,27.711,0a31.887,31.887,0,0,0,4.41,3.186Z" transform="translate(792.44 209.193)" fill="#09343b"/>
    <path id="Path-82" data-name="Path" d="M2.347,29.267A19.143,19.143,0,0,1,9.964,3.284l1.713-.936A19.143,19.143,0,0,1,37.66,9.962l51.816,94.746c1.32,2.283-5.415,8.634-15.036,14.193s-18.81,8.208-20.124,5.925Z" transform="translate(733.114 99.592)" fill="#09343b"/>
    <path id="Path-83" data-name="Path" d="M0,83.27A43.065,43.065,0,0,1,61.854,57.989a48.435,48.435,0,0,1,94.3-21.96,28.2,28.2,0,0,1,5.6-.558c14.4,0,26.082,10.7,26.082,23.9s-11.676,23.9-26.082,23.9Z" transform="translate(1162.619 261.136)" fill="#0d373d"/>
    <path id="Path-84" data-name="Path" d="M.15,51.813V0" transform="translate(1269.119 292.365)" fill="none" stroke="#fff" stroke-linecap="round" stroke-miterlimit="10" stroke-width="1.5"/>
    <path id="Path-85" data-name="Path" d="M11.106,0,0,17.562" transform="translate(1269.269 305.469)" fill="none" stroke="#fff" stroke-linecap="round" stroke-miterlimit="10" stroke-width="1.5"/>
    <path id="Path-86" data-name="Path" d="M0,0,15.192,11.436" transform="translate(1254.077 326.298)" fill="none" stroke="#fff" stroke-linecap="round" stroke-miterlimit="10" stroke-width="1.5"/>
  </g>
</svg>
